<svg id="epM5ih7XcW61" xmlns="http://www.w3.org/2000/svg" xmlns:xlink="http://www.w3.org/1999/xlink" viewBox="0 0 300 300" shape-rendering="geometricPrecision" text-rendering="geometricPrecision"><path d="M52.5248,224.82051c0-26.91704,21.82057-48.73762,48.73762-48.73762s48.73762,21.82057,48.73762,48.73762-21.82057,48.73762-48.73762,48.73762-48.73762-21.82057-48.73762-48.73762Zm48.73762,38.36426c21.18804,0,38.36434-17.17626,38.36434-38.36426s-17.1763-38.36426-38.36434-38.36426-38.36434,17.17626-38.36434,38.36426s17.1763,38.36426,38.36434,38.36426Z" fill="#0054ff"/><path d="M115.22072,132.98114c0-19.20806,15.57121-34.77928,34.77928-34.77928s34.77928,15.57121,34.77928,34.77928-15.57121,34.77928-34.77928,34.77928-34.77928-15.57121-34.77928-34.77928ZM150,160.60654c15.25709,0,27.6254-12.36831,27.6254-27.6254s-12.36831-27.6254-27.6254-27.6254-27.6254,12.36831-27.6254,27.6254s12.36831,27.6254,27.6254,27.6254Z" transform="matrix(.961584 0 0 0.961584-4.100497-11.315753)" fill="#e9ff00"/><path d="M176.65706,85.35887c0-14.70928,11.9242-26.6335,26.63345-26.6335s26.63345,11.92423,26.63345,26.6335-11.9242,26.6335-26.63345,26.6335-26.63345-11.92423-26.63345-26.6335Zm26.63345,20.86078c11.52109,0,20.86078-9.33969,20.86078-20.86078s-9.33969-20.86078-20.86078-20.86078-20.86078,9.33969-20.86078,20.86078s9.33969,20.86078,20.86078,20.86078Z" transform="matrix(.877574 0 0 0.877574 22.995604-27.287005)" fill="#fb0713"/></svg>
